<svg width="46" height="46" viewBox="0 0 46 46" fill="none" xmlns="http://www.w3.org/2000/svg">
<path d="M14.2 9L10 14.6V34.2C10 34.9426 10.295 35.6548 10.8201 36.1799C11.3452 36.705 12.0574 37 12.8 37H32.4C33.1426 37 33.8548 36.705 34.3799 36.1799C34.905 35.6548 35.2 34.9426 35.2 34.2V14.6L31 9H14.2Z" stroke="black" stroke-width="2.8" stroke-linecap="round" stroke-linejoin="round"/>
<path d="M28.2 20.2C28.2 21.6852 27.61 23.1095 26.5598 24.1597C25.5096 25.21 24.0852 25.8 22.6 25.8C21.1148 25.8 19.6904 25.21 18.6402 24.1597C17.59 23.1095 17 21.6852 17 20.2" stroke="black" stroke-width="2.8" stroke-linecap="round" stroke-linejoin="round"/>
<path d="M10 14.6H35.2" stroke="black" stroke-width="2.8" stroke-linecap="round" stroke-linejoin="round"/>
</svg>
